<?xml version="1.0" standalone="no"?><!DOCTYPE svg PUBLIC "-//W3C//DTD SVG 1.1//EN" "http://www.w3.org/Graphics/SVG/1.1/DTD/svg11.dtd"><svg t="1666299009228" class="icon" viewBox="0 0 1024 1024" version="1.1" xmlns="http://www.w3.org/2000/svg" p-id="9552" xmlns:xlink="http://www.w3.org/1999/xlink" width="200" height="200"><path d="M378.88 769.536c19.456-24.064 42.496-46.08 64.512-67.584l179.2-179.2c55.808-55.808 111.616-111.616 166.912-167.424 12.288-12.288 24.576-27.648 38.4-38.4 14.336-11.264 24.064-4.096 35.328 7.168l29.184 30.72c2.048 2.56 14.848 12.288 14.848 15.872l-0.512-239.616c0-35.84-29.696-65.024-66.048-65.024H142.848c-36.352 0-66.048 29.184-66.048 65.024v753.664c0 35.84 29.696 65.024 66.048 65.024l173.056 1.024 34.304-126.976c1.536-1.024 9.216-31.232 28.672-54.272z" fill="#C480FF" p-id="9553"></path><path d="M451.072 441.856H211.456c-11.264 0-20.48-9.216-20.48-19.968 0-11.264 9.216-19.968 20.48-19.968h239.616c11.264 0 20.48 9.216 20.48 19.968 0 10.752-9.216 19.968-20.48 19.968zM617.472 335.36H211.456c-11.264 0-20.48-9.216-20.48-19.968 0-11.264 9.216-19.968 20.48-19.968h406.016c11.264 0 20.48 9.216 20.48 19.968 0 10.752-9.216 19.968-20.48 19.968zM731.136 228.864H211.456c-11.264 0-20.48-9.216-20.48-19.968 0-11.264 9.216-19.968 20.48-19.968h519.68c11.264 0 20.48 9.216 20.48 19.968 0 11.264-9.216 19.968-20.48 19.968z" fill="#FFFFFF" p-id="9554"></path><path d="M952.32 505.856l-95.232-93.696c-10.24-9.728-28.16-9.728-37.888 0L419.84 803.84c-1.536 1.536-3.072 3.584-3.584 6.144l-39.936 140.8c-1.024 4.608 0 9.216 3.072 12.8 2.56 2.56 6.144 4.608 10.24 4.608h2.56l154.112-28.16c2.56-0.512 5.12-2.048 7.168-3.584l398.848-392.192c10.24-11.264 10.24-28.16 0-38.4z" fill="#C5B3FF" p-id="9555"></path><path d="M890.368 583.68c-5.12 5.12-13.312 5.12-17.92 0.512l-95.232-93.696c-4.608-4.608-4.608-12.8 0.512-17.408 5.12-5.12 13.312-5.12 17.92-0.512l95.232 93.696c5.12 4.096 4.608 12.288-0.512 17.408z" fill="#FFFFFF" p-id="9556"></path></svg>