<?xml version="1.0" standalone="no"?><!DOCTYPE svg PUBLIC "-//W3C//DTD SVG 1.1//EN" "http://www.w3.org/Graphics/SVG/1.1/DTD/svg11.dtd"><svg t="1666298911078" class="icon" viewBox="0 0 1024 1024" version="1.1" xmlns="http://www.w3.org/2000/svg" p-id="2390" xmlns:xlink="http://www.w3.org/1999/xlink" width="200" height="200"><path d="M952 512c0 127.7-54.4 242.6-141.2 323-39 36.1-84.6 65.3-134.8 85.4-50.7 20.4-106 31.6-164 31.6-243 0-440-197-440-440 0-57.8 11.2-113 31.4-163.6 15.4-38.4 36-74.2 61.1-106.3 26.4-33.9 57.6-63.8 92.6-88.8 22.7-16.1 46.9-30.2 72.5-41.8C385.1 86.1 446.9 72 512 72c27.3 0 54 2.5 79.9 7.2 123.3 22.6 228.7 96.6 293 199 24.7 39.3 43.3 82.7 54.6 129.1 8.2 33.6 12.5 68.6 12.5 104.7z" fill="#FFD071" p-id="2391"></path><path d="M800.4 144.7l-11.5 11.5c-1.9 1.9-5 1.9-6.8 0-1.9-1.9-1.9-5 0-6.8l11.5-11.5c1.9-1.9 5-1.9 6.8 0 1.9 1.9 1.9 5 0 6.8z" fill="#F9B630" p-id="2392"></path><path d="M806.3 162.1c-2 2-5.4 2-7.4 0l-10.3-10.3c-2-2-2-5.4 0-7.4s5.4-2 7.4 0l10.3 10.3c2 2 2 5.3 0 7.4zM826.2 133.9l-11.5 11.4c-1.9 1.9-5 1.9-6.8 0-1.9-1.9-1.9-5 0-6.8l11.5-11.5c1.9-1.9 5-1.9 6.8 0 1.8 1.9 1.8 5 0 6.9z" fill="#F9B630" p-id="2393"></path><path d="M832 151.2c-2 2-5.4 2-7.4 0l-10.3-10.3c-2-2-2-5.4 0-7.4s5.4-2 7.4 0l10.3 10.3c2.1 2 2.1 5.3 0 7.4zM851.9 123l-11.5 11.5c-1.9 1.9-5 1.9-6.8 0-1.9-1.9-1.9-5 0-6.8l11.5-11.5c1.9-1.9 5-1.9 6.8 0 1.9 1.8 1.9 4.9 0 6.8z" fill="#F9B630" p-id="2394"></path><path d="M857.8 140.3c-2 2-5.4 2-7.4 0L840.1 130c-2-2-2-5.4 0-7.4s5.4-2 7.4 0l10.3 10.3c2 2 2 5.4 0 7.4z" fill="#F9B630" p-id="2395"></path><path d="M877.7 112.1l-11.5 11.5c-1.9 1.9-5 1.9-6.8 0-1.9-1.9-1.9-5 0-6.8l11.5-11.5c1.9-1.9 5-1.9 6.8 0 1.8 1.9 1.8 4.9 0 6.8z" fill="#F9B630" p-id="2396"></path><path d="M883.5 129.4c-2 2-5.4 2-7.4 0l-10.3-10.3c-2-2-2-5.4 0-7.4s5.4-2 7.4 0l10.3 10.3c2.1 2 2.1 5.4 0 7.4z" fill="#F9B630" p-id="2397"></path><path d="M903.4 101.2l-11.5 11.5c-1.9 1.9-5 1.9-6.8 0-1.9-1.9-1.9-5 0-6.8l11.5-11.5c1.9-1.9 5-1.9 6.8 0 1.9 1.9 1.9 5 0 6.8z" fill="#F9B630" p-id="2398"></path><path d="M909.3 118.6c-2 2-5.4 2-7.4 0l-10.4-10.3c-2-2-2-5.4 0-7.4s5.4-2 7.4 0l10.3 10.3c2.1 2 2.1 5.3 0.1 7.4z" fill="#F9B630" p-id="2399"></path><path d="M858.3 245l-27.6-5.5c-4.7-0.9-9.5-0.9-14.1 0.1-7.1 1.4-13.6 5-18.7 10.5l-3.4 3.7-6.8 7.2-15.1-23.4-10.5-16.2-2.7-4.2 8.2-7.7c3.4-3.2 6-7.1 7.5-11.5 1.1-3 1.6-6.2 1.6-9.5v-22.3l115.1-47.9 25.6-10.6 25.4 8s-52.3 38.4-84.5 129.3z" fill="#F473C3" p-id="2400"></path><path d="M458 612.6l-58.4-58.4 359.6-337.1 5.7-5.3 2.6-2.4c3.4-3.2 5.9-7.1 7.4-11.4l18.6 18.6 23.1 23c-7.1 1.5-13.6 5-18.7 10.4l-1.5 1.6-2.1 2.1L458 612.6z" fill="#F9F7FC" p-id="2401"></path><path d="M858.3 245l-27.6-5.5c-4.7-0.9-9.5-0.9-14.1 0.1-7.1 1.4-13.6 5-18.7 10.5l-3.4 3.7-6.8 7.2-15.1-23.4 119.3-119.3 25.6-10.6 25.4 8c-0.1 0-52.4 38.4-84.6 129.3z" fill="#C640A6" p-id="2402"></path><path d="M458 612.6l-30.2-30.2 365.8-365.8 23.1 23c-7.1 1.5-13.6 5-18.7 10.4l-1.5 1.6-2.1 2.1L458 612.6z" fill="#DCDAEB" p-id="2403"></path><path d="M295.8 848.3c-28.8-14.6-55-33.8-77.5-56.5-21.8-22-40.2-47.5-54.4-75.4-29.8-58.8-44.4-136.1 48.2-178.3 157.7-72 153.9-76.6 198.1-172.9s161.8-95.5 111.3-33.9c0 0-77.4 89.3 30.4 77.7l18.2 31 20.2 34.3c-75.3 92.8 17.2 101.9 46 86.2 16.1-8.9 34.8 7.7 27.4 24.6-15.5 35.7-78.5 44.1-107.3 68.3-24.4 24-43.6 62.2-82.2 146.8-42.3 92.6-119.6 77.9-178.4 48.1z" fill="#F473C3" p-id="2404"></path><path d="M295.8 848.3c-28.8-14.6-55-33.8-77.5-56.5L570.1 440l20.2 34.3c-75.3 92.8 17.2 101.9 46 86.2 16.1-8.9 34.8 7.7 27.4 24.6-15.5 35.7-78.5 44.1-107.3 68.3-24.4 24-43.6 62.2-82.2 146.8-42.3 92.6-119.6 77.9-178.4 48.1z" fill="#C640A6" p-id="2405"></path><path d="M453.9 635.7c-9.9 9.9-25.9 9.9-35.8 0l-41.5-41.5c-9.9-9.9-9.9-25.9 0-35.8 9.9-9.9 25.9-9.9 35.8 0l41.5 41.5c9.9 9.9 9.9 25.9 0 35.8zM398.5 708.4L372.9 734c-7.3 7.3-19.2 7.3-26.5 0l-68.2-68.2c-7.3-7.3-7.3-19.2 0-26.5l25.6-25.6c7.3-7.3 19.2-7.3 26.5 0l68.2 68.2c7.3 7.3 7.3 19.2 0 26.5z" fill="#F9F7FC" p-id="2406"></path><path d="M388.2 766.2m-20.8 0a20.8 20.8 0 1 0 41.6 0 20.8 20.8 0 1 0-41.6 0Z" fill="#9DD4A9" p-id="2407"></path><path d="M332.2 821.8m-20.8 0a20.8 20.8 0 1 0 41.6 0 20.8 20.8 0 1 0-41.6 0Z" fill="#9DD4A9" p-id="2408"></path><path d="M446.2 770.2m-20.8 0a20.8 20.8 0 1 0 41.6 0 20.8 20.8 0 1 0-41.6 0Z" fill="#2A286B" p-id="2409"></path><path d="M390.2 825.8m-20.8 0a20.8 20.8 0 1 0 41.6 0 20.8 20.8 0 1 0-41.6 0Z" fill="#443F80" p-id="2410"></path><path d="M418.1 635.7l-21.8-21.8 35.8-35.8 21.8 21.8c9.9 9.9 9.9 25.9 0 35.8s-25.9 9.9-35.8 0zM398.5 708.4L372.9 734c-7.3 7.3-19.2 7.3-26.5 0l-35.1-35.1 52.1-52.1 35.1 35.1c7.3 7.3 7.3 19.2 0 26.5z" fill="#DCDAEB" p-id="2411"></path><path d="M512 972c-62.1 0-122.3-12.2-179.1-36.2-54.8-23.2-104-56.3-146.2-98.6-42.2-42.2-75.4-91.4-98.6-146.2C64.2 634.3 52 574.1 52 512c0-58.9 11-116.5 32.8-171 16.1-40.1 37.6-77.5 63.9-111.2 27.5-35.4 60.1-66.6 96.7-92.8 24.3-17.2 49.8-31.9 75.9-43.7C381.2 65.9 445.3 52 512 52c27.9 0 56 2.5 83.5 7.5 10.9 2 18.1 12.4 16.1 23.2-2 10.9-12.4 18.1-23.2 16.1-25.2-4.5-50.9-6.8-76.4-6.8-60.9 0-119.4 12.7-174.1 37.7-23.8 10.8-47.1 24.2-69.3 39.9-33.4 23.9-63.2 52.4-88.4 84.8-24 30.7-43.6 64.8-58.3 101.5C102.1 405.6 92 458.2 92 512c0 56.7 11.1 111.7 33 163.5 21.2 50 51.4 94.9 90 133.5 38.6 38.6 83.5 68.9 133.5 90 51.8 21.9 106.8 33 163.5 33 54.1 0 106.8-10.1 156.5-30.2 47.5-19 90.8-46.4 128.7-81.5 42.1-39 75.2-85.1 98.5-137.2 24.1-54 36.3-111.5 36.3-171.1 0-33.9-4-67.5-11.9-100-2.6-10.7 4-21.6 14.7-24.2 10.7-2.6 21.6 4 24.2 14.7 8.7 35.5 13.1 72.4 13.1 109.4 0 65.2-13.4 128.3-39.8 187.4-25.5 57.1-61.8 107.6-107.8 150.3-41.5 38.4-88.9 68.5-141 89.3C629 960.9 571.3 972 512 972z" fill="#9DD4A9" p-id="2412"></path><path d="M947.7 114.9c-0.3-1.9-1.6-3.4-3.4-4l-25.4-8c-1.1-0.4-2.3-0.3-3.4 0.2l-140.7 58.5c-1.9 0.8-3.1 2.6-3.1 4.6v22.3c0 2.4-0.3 4.7-1 6.8-0.2 0.3-0.4 0.7-0.5 1.1-1.3 3.6-3.3 6.8-6.1 9.4l-8.3 7.7L552.5 404c-0.4 0-0.7-0.1-1.1 0-27.6 3-44.8-0.6-50-10.4-8.4-16.1 14.4-48.1 23.9-59l0.1-0.1c15.6-19 14.9-31.2 11.6-38.1-4-8.3-13.8-13-26.9-13h-0.4c-27.2 0.2-77.3 21.6-103.9 79.7-2 4.3-3.9 8.5-5.7 12.5-37.9 83.2-41 90-189.9 157.9-35.3 16.1-58.3 38.6-68.2 66.9-11.5 32.8-5.6 72.6 17.6 118.2 14.5 28.4 33.1 54.2 55.3 76.7 23.1 23.3 49.6 42.7 78.8 57.4 30.6 15.5 58.6 23.3 83.6 23.3 12.3 0 23.9-1.9 34.7-5.7 28.3-9.9 50.8-32.8 66.9-68.1 36.8-80.6 56.8-121.3 81-145.2 10.7-8.9 26.4-15.6 43-22.8 27.2-11.6 55.2-23.6 65.5-47.2 4.2-9.6 1.9-20.4-5.9-27.5-8-7.3-19.1-8.6-28.4-3.5-15.3 8.3-49.3 8.5-62.2-7-11.7-14-3.7-39.5 22.4-71.7 0.9-1.1 1.3-2.6 1-4L790.5 265c0.3-0.2 0.7-0.5 1-0.8l6.8-7.2 3.4-3.7c1.5-1.6 3.2-3.1 4.9-4.3 0.2-0.2 0.5-0.3 0.8-0.5 3.1-2 6.6-3.4 10.3-4.2h0.1c3.9-0.8 8-0.9 12.1-0.1l27.6 5.5c2.4 0.5 4.9-0.9 5.7-3.2 0.4-1 0.7-2.1 1.1-3.1 16.4-44.9 37.7-76.2 52.7-94.5 16.3-19.9 28.8-29.2 28.9-29.3 1.4-1 2.1-2.9 1.8-4.7zM762.6 220.8l8.3-7.7c2.1-1.9 3.9-4.2 5.4-6.6l13.7 13.7 17.3 17.2c-1.9 0.8-3.7 1.8-5.4 3 0 0-0.1 0-0.1 0.1l-0.9 0.6h-0.1c-2.3 1.6-4.5 3.4-6.5 5.5l-1.4 1.5-2 2-0.1 0.1-200.6 214-15.8-26.8-15.3-26 203.5-190.6zM564.1 555.5c16.6 20 56.1 19.4 74.7 9.3 6.7-3.7 13.1-1.4 16.9 2.1 3.7 3.3 6.5 9.3 3.5 16.2-8.7 20-34.9 31.2-60.2 42-17.4 7.5-33.9 14.5-45.7 24.4l-0.3 0.3c-12.4 12.2-23.7 28.2-36.7 51.8-12.8 23.4-27.3 54.3-46.6 96.5-15 32.7-35.5 53.9-61.1 62.8-30.1 10.5-67.3 4.8-110.5-17.1-28.2-14.3-53.8-33-76.2-55.6-21.5-21.7-39.5-46.6-53.5-74.1-21.9-43.2-27.6-80.3-17.1-110.4 9-25.6 30.1-46.2 62.9-61.1 78.1-35.7 114.8-54 139.4-75.1 25.3-21.7 36-45.2 55.5-87.8 1.8-4 3.7-8.1 5.7-12.5 13.4-29.3 32.7-46.7 46.4-56.2 16-11 34.1-17.6 48.5-17.7 9.3-0.1 16 2.6 18.3 7.3 2.9 6-0.9 16-10.3 27.4-0.8 1-9.7 11.3-17.2 24.6-11 19.3-13.7 34.6-7.9 45.6 7.1 13.7 25.7 18.9 56.7 16.1l16.6 28.2 18.5 31.3c-20.2 25.5-39 59.4-20.3 81.7z m291-316.2l-23.4-4.7c-4.5-0.9-9-1-13.3-0.4L797 213.1l-16.3-16.3c0.7-2.6 1-5.4 1-8.2v-19L917.6 113l14.9 4.7c-15.4 13.9-51.9 52-77.4 121.6z" fill="#FFFFFF" p-id="2413"></path><path d="M414.6 639.2c5.9 5.9 13.7 8.9 21.4 8.9s15.5-3 21.4-8.9c5.7-5.7 8.9-13.3 8.9-21.4s-3.2-15.7-8.9-21.4l-41.5-41.5c-5.7-5.7-13.3-8.9-21.4-8.9s-15.7 3.2-21.4 8.9c-5.7 5.7-8.9 13.3-8.9 21.4s3.2 15.7 8.9 21.4l41.5 41.5z m-34.5-77.3c3.8-3.8 8.9-6 14.4-6s10.5 2.1 14.4 6l41.5 41.5c3.8 3.8 6 8.9 6 14.4 0 5.4-2.1 10.5-6 14.4-7.9 7.9-20.8 7.9-28.7 0l-41.5-41.5c-3.8-3.8-6-8.9-6-14.4 0-5.4 2.1-10.5 5.9-14.4zM402 711.9c9.3-9.3 9.3-24.3 0-33.6l-68.2-68.2c-9.3-9.3-24.3-9.3-33.6 0l-25.6 25.6c-4.5 4.5-6.9 10.4-6.9 16.8s2.5 12.3 6.9 16.8l68.2 68.2c4.6 4.6 10.7 6.9 16.8 6.9 6.1 0 12.2-2.3 16.8-6.9l25.6-25.6z m-52.1 18.6l-68.2-68.2c-2.6-2.6-4-6-4-9.7s1.4-7.1 4-9.7l25.6-25.6c2.7-2.7 6.2-4 9.7-4 3.5 0 7 1.3 9.7 4l68.2 68.2c5.4 5.4 5.4 14.1 0 19.4l-25.6 25.6c-5.3 5.3-14 5.3-19.4 0zM388.2 792c14.2 0 25.8-11.6 25.8-25.8s-11.6-25.8-25.8-25.8c-14.2 0-25.8 11.6-25.8 25.8S374 792 388.2 792z m0-41.6c8.7 0 15.8 7.1 15.8 15.8s-7.1 15.8-15.8 15.8c-8.7 0-15.8-7.1-15.8-15.8s7.1-15.8 15.8-15.8zM332.2 796c-14.2 0-25.8 11.6-25.8 25.8s11.6 25.8 25.8 25.8c14.2 0 25.8-11.6 25.8-25.8S346.4 796 332.2 796z m0 41.6c-8.7 0-15.8-7.1-15.8-15.8s7.1-15.8 15.8-15.8c8.7 0 15.8 7.1 15.8 15.8s-7.1 15.8-15.8 15.8zM446.2 744.4c-14.2 0-25.8 11.6-25.8 25.8S432 796 446.2 796c14.2 0 25.8-11.6 25.8-25.8s-11.6-25.8-25.8-25.8z m0 41.6c-8.7 0-15.8-7.1-15.8-15.8s7.1-15.8 15.8-15.8c8.7 0 15.8 7.1 15.8 15.8s-7.1 15.8-15.8 15.8zM390.2 800c-14.2 0-25.8 11.6-25.8 25.8s11.6 25.8 25.8 25.8c14.2 0 25.8-11.6 25.8-25.8S404.4 800 390.2 800z m0 41.6c-8.7 0-15.8-7.1-15.8-15.8s7.1-15.8 15.8-15.8c8.7 0 15.8 7.1 15.8 15.8s-7.1 15.8-15.8 15.8z" fill="#FFFFFF" p-id="2414"></path></svg>