<?xml version="1.0" standalone="no"?><!DOCTYPE svg PUBLIC "-//W3C//DTD SVG 1.1//EN" "http://www.w3.org/Graphics/SVG/1.1/DTD/svg11.dtd"><svg t="1666298920940" class="icon" viewBox="0 0 1024 1024" version="1.1" xmlns="http://www.w3.org/2000/svg" p-id="2892" xmlns:xlink="http://www.w3.org/1999/xlink" width="200" height="200"><path d="M108.544 313.344h808.96v604.16H108.544z" fill="#FFEA00" p-id="2893"></path><path d="M387.072 632.832c-4.096 28.672-10.24 57.344-14.336 88.064h-2.048c-6.144-30.72-12.288-59.392-18.432-88.064l-34.816-143.36h-38.912l-34.816 143.36c-6.144 28.672-12.288 59.392-18.432 88.064h-2.048l-14.336-88.064-26.624-143.36H139.264l55.296 274.432H245.76l36.864-151.552c4.096-22.528 8.192-43.008 12.288-63.488h2.048c4.096 20.48 8.192 40.96 12.288 63.488l36.864 151.552h53.248l53.248-274.432h-40.96l-24.576 143.36z m135.168 6.144h100.352v-36.864h-100.352v-75.776h118.784v-36.864h-161.792v274.432h165.888v-36.864h-122.88v-88.064zM942.08 204.8H81.92c-45.056 0-81.92 36.864-81.92 81.92v655.36c0 45.056 36.864 81.92 81.92 81.92h860.16c45.056 0 81.92-36.864 81.92-81.92V286.72c0-45.056-36.864-81.92-81.92-81.92z m20.48 716.8c0 22.528-18.432 40.96-40.96 40.96H102.4c-22.528 0-40.96-18.432-40.96-40.96V307.2c0-22.528 18.432-40.96 40.96-40.96h819.2c22.528 0 40.96 18.432 40.96 40.96v614.4z m-139.264-303.104c24.576-10.24 38.912-34.816 38.912-61.44 0-49.152-40.96-67.584-96.256-67.584h-83.968v274.432h92.16c61.44 0 104.448-26.624 104.448-79.872 0-36.864-22.528-59.392-55.296-65.536z m-98.304-94.208h38.912c38.912 0 57.344 10.24 57.344 38.912 0 26.624-18.432 40.96-59.392 40.96h-36.864v-79.872z m43.008 206.848h-43.008v-92.16h43.008c43.008 0 67.584 14.336 67.584 45.056 0 30.72-24.576 47.104-67.584 47.104zM993.28 0h-962.56C14.336 0 0 14.336 0 30.72v102.4C0 149.504 14.336 163.84 30.72 163.84h962.56c16.384 0 30.72-14.336 30.72-30.72v-102.4c0-16.384-14.336-30.72-30.72-30.72z" fill="" p-id="2894"></path></svg>