<?xml version="1.0" standalone="no"?><!DOCTYPE svg PUBLIC "-//W3C//DTD SVG 1.1//EN" "http://www.w3.org/Graphics/SVG/1.1/DTD/svg11.dtd"><svg t="1666299001301" class="icon" viewBox="0 0 1024 1024" version="1.1" xmlns="http://www.w3.org/2000/svg" p-id="9400" xmlns:xlink="http://www.w3.org/1999/xlink" width="200" height="200"><path d="M0 0m102.4 0l819.2 0q102.4 0 102.4 102.4l0 819.2q0 102.4-102.4 102.4l-819.2 0q-102.4 0-102.4-102.4l0-819.2q0-102.4 102.4-102.4Z" fill="#FEBA4F" p-id="9401"></path><path d="M583.68 276.48v-30.72H450.56l133.12 30.72z m-203.481-30.72h-72.386c-34.27 0-62.053 27.508-62.053 61.44v491.52c0 33.932 27.782 61.44 62.053 61.44H618.54c-38.733-27.803-64.268-70.106-70.654-117.05v0.571a69.628 69.628 0 0 1-1.212-11.945v-2.286c-0.75-18.232-0.75-46.18-0.75-46.18v-93.16l114.812-14.46 16.393-2.23 12.469 1.773 98.882 12.46V307.6c0.121-16.33-6.332-32.034-17.935-43.64-11.602-11.605-27.396-18.155-43.889-18.2H380.2z" fill="#FFFFFF" p-id="9402"></path><path d="M665.6 737.28v122.88c-30.432-10.357-56.258-31.377-72.87-59.31-11.426-19.274-18.048-41.097-19.29-63.57h92.16z m122.88 0c-3.192 56.274-39.675 104.918-92.16 122.88V737.28zM675.84 604.16V716.8H573.792c-0.352-2.747-0.352-5.495-0.352-8.242v-91.421l102.4-12.977z m10.24 0l102.4 12.99v91.4c0 2.75-0.352 5.5-0.352 8.25H686.08V604.16z" fill="#FFFFFF" p-id="9403"></path><path d="M419.778 286.72c-11.276 0-20.418-12.126-20.418-27.084v-58.391c0-9.705 3.903-18.673 10.24-23.526 6.336-4.852 14.143-4.852 20.48 0 6.336 4.853 10.24 13.82 10.24 23.526v58.175c0.043 7.248-2.106 14.218-5.966 19.348-3.86 5.131-9.11 7.995-14.576 7.952zM614.308 286.72c-16.916 0-30.628-12.126-30.628-27.084v-58.391c0-15.003 13.754-27.165 30.72-27.165 16.965 0 30.719 12.162 30.719 27.165v58.175c0.066 7.248-3.157 14.218-8.948 19.348-5.79 5.131-13.666 7.995-21.863 7.952z" fill="#FFE6C0" p-id="9404"></path><path d="M317.44 256c0 3.658 0.975 7.039 2.56 8.868 1.584 1.83 3.536 1.83 5.12 0 1.585-1.83 2.56-5.21 2.56-8.868 0-3.658-0.975-7.039-2.56-8.868-1.584-1.83-3.536-1.83-5.12 0-1.585 1.83-2.56 5.21-2.56 8.868zM278.331 322.178c-2.658-19.953 8.003-39.237 25.846-46.753 7.858-3.409-0.798-13.248-12.278-7.331-16.524 9.036-26.519 27.315-25.6 46.817 0.368 13.183 13.014 17.106 12.032 7.267z" fill="#FFFFFF" p-id="9405"></path><path d="M343.04 716.8c16.896 0 25.428 8.364 25.597 25.09l0.003 0.51c0 16.896-8.364 25.428-25.09 25.597l-0.51 0.003c-16.896 0-25.428-8.364-25.597-25.09l-0.003-0.51c0-16.896 8.364-25.428 25.09-25.597l0.51-0.003z m146.15 0c15.055 0 22.657 8.364 22.808 25.09l0.002 0.51c0 17.067-7.603 25.6-22.81 25.6h-77.26c-15.055 0-22.657-8.364-22.808-25.09l-0.002-0.51c0-17.067 7.603-25.6 22.81-25.6h77.26z m-146.15-81.92c16.896 0 25.428 8.364 25.597 25.09l0.003 0.51c0 16.896-8.364 25.428-25.09 25.597l-0.51 0.003c-16.896 0-25.428-8.364-25.597-25.09l-0.003-0.51c0-16.896 8.364-25.428 25.09-25.597l0.51-0.003z m164.865 0c16.22 0 24.41 8.364 24.573 25.09l0.002 0.51c0 17.067-8.192 25.6-24.575 25.6h-83.97c-16.22 0-24.41-8.364-24.573-25.09l-0.002-0.51c0-17.067 8.192-25.6 24.575-25.6h83.97zM343.04 542.72c16.896 0 25.428 8.364 25.597 25.09l0.003 0.51c0 16.896-8.364 25.428-25.09 25.597l-0.51 0.003c-16.896 0-25.428-8.364-25.597-25.09l-0.003-0.51c0-16.896 8.364-25.428 25.09-25.597l0.51-0.003z m164.865 0c16.22 0 24.41 8.364 24.573 25.09l0.002 0.51c0 17.067-8.192 25.6-24.575 25.6h-83.97c-16.22 0-24.41-8.364-24.573-25.09l-0.002-0.51c0-17.067 8.192-25.6 24.575-25.6h83.97zM343.04 460.8c16.896 0 25.428 8.364 25.597 25.09l0.003 0.51c0 16.896-8.364 25.428-25.09 25.597l-0.51 0.003c-16.896 0-25.428-8.364-25.597-25.09l-0.003-0.51c0-16.896 8.364-25.428 25.09-25.597l0.51-0.003z m287.615 0c16.305 0 24.54 8.364 24.703 25.09l0.002 0.51c0 17.067-8.235 25.6-24.705 25.6h-216.83c-16.305 0-24.54-8.364-24.703-25.09l-0.002-0.51c0-17.067 8.235-25.6 24.705-25.6h216.83zM343.04 378.88c16.896 0 25.428 8.364 25.597 25.09l0.003 0.51c0 16.896-8.364 25.428-25.09 25.597l-0.51 0.003c-16.896 0-25.428-8.364-25.597-25.09l-0.003-0.51c0-16.896 8.364-25.428 25.09-25.597l0.51-0.003z m349.676 0c15.895 0 23.923 8.364 24.082 25.09l0.002 0.51c0 17.067-8.028 25.6-24.084 25.6H413.204c-15.895 0-23.923-8.364-24.082-25.09l-0.002-0.51c0-17.067 8.028-25.6 24.084-25.6h279.512z" fill="#FFE6C0" p-id="9406"></path></svg>