<?xml version="1.0" standalone="no"?><!DOCTYPE svg PUBLIC "-//W3C//DTD SVG 1.1//EN" "http://www.w3.org/Graphics/SVG/1.1/DTD/svg11.dtd"><svg t="1666298960885" class="icon" viewBox="0 0 1026 1024" version="1.1" xmlns="http://www.w3.org/2000/svg" p-id="4841" xmlns:xlink="http://www.w3.org/1999/xlink" width="200.390625" height="200"><path d="M832 874.666667H106.666667c-46.933333 0-85.333333-38.4-85.333334-85.333334V234.666667c0-46.933333 38.4-85.333333 85.333334-85.333334l337.066666-2.133333L576 42.666667h256c46.933333 0 85.333333 38.4 85.333333 85.333333v661.333333c0 46.933333-38.4 85.333333-85.333333 85.333334z" fill="#FFFFFF" p-id="4842"></path><path d="M832 896H106.666667c-59.733333 0-106.666667-46.933333-106.666667-106.666667V234.666667c0-59.733333 46.933333-106.666667 106.666667-106.666667l330.666666-2.133333L567.466667 21.333333H832c59.733333 0 106.666667 46.933333 106.666667 106.666667v661.333333c0 57.6-49.066667 106.666667-106.666667 106.666667zM582.4 64l-132.266667 104.533333L106.666667 170.666667c-36.266667 0-64 27.733333-64 64v554.666666c0 36.266667 27.733333 64 64 64h725.333333c36.266667 0 64-27.733333 64-64V128c0-36.266667-27.733333-64-64-64H582.4z" p-id="4843"></path><path d="M192 234.666667h554.666667c46.933333 0 85.333333 38.4 85.333333 85.333333v469.333333H106.666667V320c0-49.066667 38.4-85.333333 85.333333-85.333333z" fill="#FFBF80" p-id="4844"></path><path d="M853.333333 810.666667H85.333333V320c0-59.733333 46.933333-106.666667 106.666667-106.666667h554.666667c59.733333 0 106.666667 46.933333 106.666666 106.666667v490.666667zM128 768h682.666667V320c0-36.266667-27.733333-64-64-64H192c-36.266667 0-64 27.733333-64 64v448z" p-id="4845"></path><path d="M21.333333 320h896v512c0 46.933333-38.4 85.333333-85.333333 85.333333H106.666667c-46.933333 0-85.333333-38.4-85.333334-85.333333V320z" fill="#3399FF" p-id="4846"></path><path d="M832 938.666667H106.666667c-59.733333 0-106.666667-46.933333-106.666667-106.666667V298.666667h938.666667v533.333333c0 57.6-49.066667 106.666667-106.666667 106.666667zM42.666667 341.333333v490.666667c0 36.266667 27.733333 64 64 64h725.333333c36.266667 0 64-27.733333 64-64V341.333333H42.666667z" p-id="4847"></path><path d="M768 979.2l-215.466667-117.333333v-234.666667L768 512l213.333333 117.333333v234.666667l-213.333333 115.2zM768 661.333333c-46.933333 0-85.333333 38.4-85.333333 85.333334s38.4 85.333333 85.333333 85.333333 85.333333-38.4 85.333333-85.333333-38.4-85.333333-85.333333-85.333334z" fill="#FFFFFF" p-id="4848"></path><path d="M768 1002.666667l-236.8-128V616.533333l236.8-128 236.8 128V874.666667L768 1002.666667z m-194.133333-153.6l194.133333 104.533333 194.133333-104.533333V640L768 535.466667 573.866667 640v209.066667z m194.133333 4.266666c-59.733333 0-106.666667-46.933333-106.666667-106.666666s46.933333-106.666667 106.666667-106.666667 106.666667 46.933333 106.666667 106.666667-49.066667 106.666667-106.666667 106.666666z m0-170.666666c-36.266667 0-64 27.733333-64 64s27.733333 64 64 64 64-27.733333 64-64-29.866667-64-64-64z" p-id="4849"></path></svg>