<?xml version="1.0" standalone="no"?><!DOCTYPE svg PUBLIC "-//W3C//DTD SVG 1.1//EN" "http://www.w3.org/Graphics/SVG/1.1/DTD/svg11.dtd"><svg t="1666298905863" class="icon" viewBox="0 0 1024 1024" version="1.1" xmlns="http://www.w3.org/2000/svg" p-id="2226" xmlns:xlink="http://www.w3.org/1999/xlink" width="200" height="200"><path d="M713.2 244.4l-40.6-40.6c-4.7-4.7-4.7-12.3 0-17l19.4-19.4c4.7-4.7 12.3-4.7 17 0l40.6 40.6c4.7 4.7 4.7 12.3 0 17l-19.4 19.4c-4.7 4.7-12.4 4.7-17 0z" fill="#99755B" p-id="2227"></path><path d="M721.6 257.9c-5.9 0-11.4-2.3-15.6-6.4l-40.6-40.6c-8.6-8.6-8.6-22.5 0-31.1l19.4-19.4c4.1-4.1 9.7-6.4 15.6-6.4s11.4 2.3 15.6 6.4l40.6 40.6c8.6 8.6 8.6 22.5 0 31.1l-19.4 19.4c-4.2 4.1-9.7 6.4-15.6 6.4zM700.4 174c-0.4 0-0.9 0.1-1.4 0.6L679.6 194c-0.8 0.8-0.8 2.1 0 2.8l40.6 40.6c0.8 0.8 2.1 0.8 2.8 0l19.4-19.4c0.8-0.8 0.8-2.1 0-2.8l-40.6-40.6c-0.5-0.5-1-0.6-1.4-0.6z" fill="#543630" p-id="2228"></path><path d="M837.2 327.4l-40.6-40.6c-4.7-4.7-4.7-12.3 0-17l19.4-19.4c4.7-4.7 12.3-4.7 17 0l40.6 40.6c4.7 4.7 4.7 12.3 0 17l-19.4 19.4c-4.7 4.7-12.4 4.7-17 0z" fill="#99755B" p-id="2229"></path><path d="M845.7 340.9c-5.9 0-11.4-2.3-15.6-6.4l-40.6-40.6c-4.1-4.1-6.4-9.7-6.4-15.6s2.3-11.4 6.4-15.6l19.4-19.4c4.1-4.1 9.7-6.4 15.6-6.4s11.4 2.3 15.6 6.4l40.6 40.6c4.1 4.1 6.4 9.7 6.4 15.6s-2.3 11.4-6.4 15.6l-19.4 19.4c-4.2 4.1-9.8 6.4-15.6 6.4zM824.4 257c-0.5 0-1 0.2-1.4 0.6L803.6 277c-0.5 0.5-0.6 1-0.6 1.4 0 0.4 0.1 0.9 0.6 1.4l40.6 40.6c0.8 0.8 2.1 0.8 2.8 0l19.4-19.4c0.5-0.5 0.6-1 0.6-1.4 0-0.4-0.1-0.9-0.6-1.4l-40.6-40.6c-0.3-0.4-0.9-0.6-1.4-0.6z" fill="#543630" p-id="2230"></path><path d="M638.1 685.1c32.5-9 60.7-27.9 85.6-52.8 76.3-76.3 84.7-194.7-28.1-307.5s-223.2-112.4-307.5-28.1c-24.9 24.9-43.8 53.1-52.8 85.6-50.5 5.2-105.5 19-142.7 56.1-93.1 93.1-91.4 232.8 32.5 356.8s263.6 125.7 356.8 32.5c37.2-37.1 51-92 56.2-142.6z" fill="#C6A07D" p-id="2231"></path><path d="M429.9 903.5c-5.1 0-10.3-0.2-15.4-0.5-67.3-4.6-135.2-39.4-196.3-100.6-61.1-61.1-95.9-129-100.6-196.3-2.2-32.3 2.5-63.8 14.2-93.6 11.6-29.6 29.7-56.9 53.9-81 31.7-31.7 78.2-50.8 142.1-58.3 9.5-29.7 27-57.1 53.4-83.4 22.1-22.1 45.9-38.6 70.9-49.2 25.6-10.8 52.5-15.4 79.9-13.6 56.8 3.8 114.3 34.3 170.8 90.9 54.8 54.8 85.1 114.9 87.9 174 1.3 27.6-3.4 54.5-14 80-10.2 24.7-25.6 47.4-45.9 67.6-26.4 26.4-53.7 43.9-83.4 53.4-7.5 63.9-26.6 110.4-58.3 142.1-24.2 24.2-51.4 42.3-81 53.9-25.1 9.6-51.3 14.6-78.2 14.6z m90.1-657c-44.8 0-86.8 19.3-124.8 57.3-25.8 25.9-42.2 52.4-50.2 81.2-1.1 4-4.5 6.9-8.6 7.3-62.6 6.5-107.3 23.9-136.7 53.3-44.8 44.8-66.3 99.8-62.2 159.1 4.3 62.4 37.1 125.9 94.8 183.5 57.7 57.7 121.2 90.4 183.6 94.8 4.7 0.3 9.5 0.5 14.2 0.5 53.9 0 103.7-21.5 144.9-62.7 29.4-29.4 46.8-74.1 53.3-136.7 0.4-4.1 3.3-7.5 7.3-8.6 28.8-8 55.4-24.4 81.2-50.2 37.6-37.6 56.2-83.4 54-132.6-2.5-54-30.9-109.6-82-160.8-53-53-106.2-81.6-158-85-3.8-0.3-7.3-0.4-10.8-0.4z" fill="#543630" p-id="2232"></path><path d="M644.4 552c44.4-44.4 29.3-110.6-18-157.9s-113.5-62.4-157.9-18-37.7 116.5 10.9 165.1 120.6 55.2 165 10.8z" fill="#99755B" p-id="2233"></path><path d="M571.8 591.8c-3 0-6.1-0.1-9.1-0.3-32.9-2.4-65-17.8-90.4-43.2s-40.8-57.5-43.2-90.4c-2.5-33.9 9-65.4 32.3-88.8 23.3-23.3 53.2-33.1 86.4-28.2 29.8 4.4 60.3 20.8 85.7 46.2 25.4 25.4 41.8 55.8 46.2 85.7 4.9 33.2-4.9 63-28.2 86.4-21.3 21.2-49.3 32.6-79.7 32.6z m-40.3-232.2c-21.3 0-40.5 8-56.1 23.5-19.2 19.2-28.6 45.1-26.5 73.1 2.1 28.1 15.4 55.7 37.4 77.8 22 22 49.7 35.3 77.8 37.4 28 2.1 54-7.3 73.1-26.5 18.7-18.7 26.5-42.7 22.6-69.3-3.8-25.6-18.2-52.1-40.6-74.5-22.4-22.4-48.8-36.8-74.5-40.6-4.4-0.5-8.8-0.9-13.2-0.9z" fill="#543630" p-id="2234"></path><path d="M574.1 406.6L361.7 619.1" fill="#FFEA80" p-id="2235"></path><path d="M361.7 629.1c-2.6 0-5.1-1-7.1-2.9-3.9-3.9-3.9-10.2 0-14.1L567 399.7c3.9-3.9 10.2-3.9 14.1 0 3.9 3.9 3.9 10.2 0 14.1L368.8 626.1c-2 2-4.5 3-7.1 3z" fill="#543630" p-id="2236"></path><path d="M613.8 446.3L401.4 658.7" fill="#FFEA80" p-id="2237"></path><path d="M401.4 668.7c-2.6 0-5.1-1-7.1-2.9-3.9-3.9-3.9-10.2 0-14.1l212.4-212.4c3.9-3.9 10.2-3.9 14.1 0 3.9 3.9 3.9 10.2 0 14.1L408.5 665.8c-2 2-4.5 2.9-7.1 2.9z" fill="#543630" p-id="2238"></path><path d="M602.1 480.7l-62.3-62.3c-4.7-4.7-4.7-12.3 0-17L787.1 154c4.7-4.7 12.3-4.7 17 0l62.3 62.3c4.7 4.7 4.7 12.3 0 17L619.1 480.7c-4.7 4.6-12.3 4.6-17 0z" fill="#C6A07D" p-id="2239"></path><path d="M610.6 494.2c-5.9 0-11.4-2.3-15.6-6.4l-62.3-62.3c-8.6-8.6-8.6-22.5 0-31.1L780.1 147c8.6-8.6 22.5-8.6 31.1 0l62.3 62.3c8.6 8.6 8.6 22.5 0 31.1L626.1 487.7c-4.1 4.2-9.6 6.5-15.5 6.5z m-1.4-20.6c0.5 0.5 1 0.6 1.4 0.6 0.4 0 0.9-0.1 1.4-0.6l247.4-247.4c0.8-0.8 0.8-2.1 0-2.8L797 161.1c-0.8-0.8-2.1-0.8-2.8 0L546.9 408.5c-0.8 0.8-0.8 2.1 0 2.8l62.3 62.3z" fill="#543630" p-id="2240"></path><path d="M407.3 729.7l-29-65.9c-1.8-4-0.9-8.6 2.2-11.7l17.6-17.6c3.5-3.6 9.1-4.1 13.3-1.3l57 37.9c5.6 3.7 6.3 11.5 1.6 16.2l-45.6 45.6c-5.2 5.3-14.1 3.6-17.1-3.2z" fill="#FFFFFF" p-id="2241"></path><path d="M417 746c-1.3 0-2.5-0.1-3.8-0.4-6.7-1.3-12.3-5.7-15-11.9l-29-65.9c-3.4-7.8-1.8-16.8 4.3-22.8l17.6-17.6c6.9-6.9 17.8-8 25.9-2.6l57 37.9c5.2 3.4 8.5 8.9 9.1 15.1 0.6 6.2-1.5 12.2-5.9 16.6L431.5 740c-3.9 3.9-9.1 6-14.5 6z m-0.5-20.3c0 0.1 0.1 0.3 0.4 0.3 0.3 0.1 0.4-0.1 0.5-0.2l45.6-45.6c0.1-0.1 0.2-0.2 0.2-0.4 0-0.3-0.2-0.4-0.2-0.4l-57-37.9c-0.2-0.1-0.5-0.1-0.7 0.1l-17.6 17.6c-0.2 0.2-0.2 0.4-0.1 0.6l28.9 65.9z" fill="#543630" p-id="2242"></path><path d="M290.6 613.2l65.9 29c4 1.8 8.6 0.9 11.7-2.2l17.6-17.6c3.5-3.5 4.1-9.1 1.3-13.3l-37.9-57c-3.7-5.6-11.5-6.3-16.2-1.6l-45.6 45.6c-5.2 5.3-3.6 14.1 3.2 17.1z" fill="#FFFFFF" p-id="2243"></path><path d="M360.8 653.1c-2.8 0-5.6-0.6-8.3-1.8l-65.9-29c-6.2-2.7-10.7-8.3-11.9-15s0.9-13.5 5.7-18.3l45.6-45.6c4.4-4.4 10.4-6.5 16.6-5.9 6.2 0.6 11.7 3.9 15.1 9.1l37.9 57c5.4 8.1 4.3 19-2.6 25.9l-17.6 17.6c-4.1 3.9-9.3 6-14.6 6z m-20.3-95.7c-0.2 0-0.3 0.1-0.4 0.2l-45.6 45.6c-0.1 0.1-0.2 0.2-0.2 0.5 0.1 0.3 0.2 0.4 0.3 0.4l65.9 29c0.2 0.1 0.4 0 0.6-0.1l17.6-17.6c0.2-0.2 0.2-0.5 0.1-0.7l-37.9-57c0-0.1-0.1-0.3-0.4-0.3z" fill="#543630" p-id="2244"></path><path d="M374.5 668.5L351.9 646c-4.7-4.7-4.7-12.3 0-17l20.4-20.4c4.7-4.7 12.3-4.7 17 0l22.6 22.6c4.7 4.7 4.7 12.3 0 17l-20.4 20.4c-4.7 4.6-12.3 4.6-17-0.1z" fill="#FFFFFF" p-id="2245"></path><path d="M383 682c-5.6 0-11.3-2.1-15.6-6.4L344.9 653c-8.6-8.6-8.6-22.5 0-31.1l20.4-20.4c8.6-8.6 22.5-8.6 31.1 0L419 624c4.1 4.1 6.4 9.7 6.4 15.6s-2.3 11.4-6.4 15.6l-20.4 20.4c-4.3 4.3-10 6.4-15.6 6.4z m-2.1-67c-0.5 0-1 0.2-1.4 0.6L359 636.1c-0.8 0.8-0.8 2.1 0 2.8l22.6 22.6c0.8 0.8 2.1 0.8 2.8 0l20.4-20.4c0.5-0.5 0.6-1 0.6-1.4 0-0.4-0.1-0.9-0.6-1.4l-22.6-22.6c-0.3-0.5-0.8-0.7-1.3-0.7z" fill="#543630" p-id="2246"></path><path d="M613.573136 444.174299a20.8 20.8 0 1 0 10.766171-40.182702 20.8 20.8 0 1 0-10.766171 40.182702Z" fill="#A58168" p-id="2247"></path><path d="M654.995999 359.938094a20.8 20.8 0 1 0 10.766171-40.182702 20.8 20.8 0 1 0-10.766171 40.182702Z" fill="#A58168" p-id="2248"></path><path d="M740.387822 318.147438a20.8 20.8 0 1 0 10.766171-40.182702 20.8 20.8 0 1 0-10.766171 40.182702Z" fill="#A58168" p-id="2249"></path><path d="M780.443101 232.169477a20.8 20.8 0 1 0 10.766171-40.182702 20.8 20.8 0 1 0-10.766171 40.182702Z" fill="#A58168" p-id="2250"></path></svg>