<?xml version="1.0" standalone="no"?><!DOCTYPE svg PUBLIC "-//W3C//DTD SVG 1.1//EN" "http://www.w3.org/Graphics/SVG/1.1/DTD/svg11.dtd"><svg t="1666298899996" class="icon" viewBox="0 0 1024 1024" version="1.1" xmlns="http://www.w3.org/2000/svg" p-id="2082" xmlns:xlink="http://www.w3.org/1999/xlink" width="200" height="200"><path d="M759.4 152.5c-30-18.1-66.7-31.9-109-41-41-8.9-87.6-13.4-138.2-13.4-50.6 0-97.1 4.5-138.2 13.4-42.3 9.1-78.9 22.9-109 41-64.6 38.9-98.7 97.8-98.7 170.5 0 71.3 49.1 220.1 116.8 353.7 47.6 93.9 140.7 251.6 229 251.6 88.4 0 181.4-157.6 229-251.6C809 543.1 858.2 394.3 858.2 323c0-72.6-34.2-131.6-98.8-170.5z" fill="#FF6666" p-id="2083"></path><path d="M512.3 271.1C436 271.1 374 333.2 374 409.4c0 76.3 62.1 138.4 138.3 138.4 76.3 0 138.4-62.1 138.4-138.4-0.1-76.2-62.1-138.3-138.4-138.3z" fill="#FFFFFF" p-id="2084"></path><path d="M420.6 639.8l-4.2-1.8c-15.7-7.8-11.5-29-4.2-55.9 11-34.3 22.4-68.4 31.4-95.4 3.8-11.4 7.2-21.5 9.9-29.7H419l-2.2 0.1c-9.9 0-18-3.7-22.8-10.6-3.4-4.8-6.5-13.3-1.9-25.9 8.5-18.9 27.2-58.2 45.3-96.3 18.2-38.2 37-77.6 44.9-95.2 10-20.1 28.8-25.3 38.4-25.3h74.5c2.4 0 15.1 0.5 22.5 10.8 3.4 4.8 6.7 13 2.7 25.2-5.3 16-18.4 46-30.1 72.5-3.8 8.7-7.5 17-10.5 24h29.3c2.5 0 15.4 0.5 22.1 11.4 3.2 5.2 5.7 14-0.6 26.6l-0.5 1.1s-28.3 39-50.6 69.6c-35.5 48.9-81.2 112-118 162.4-3.8 4.4-6.5 7.6-9 10.5-11.9 14-18.4 21.7-28.7 21.7h-3.2z" fill="#FFFFFF" p-id="2085"></path><path d="M609.3 351.2h-39.9s-10.3 1.7-8.3-8.3c9.7-24 37.4-83.6 45.3-107.7 5.4-16.6-11.1-16.6-11.1-16.6h-74.5s-16.6 0-24.8 16.6c-15.9 35.4-73.8 154.9-89.8 190.5-6.7 18.5 12.2 16.6 12.2 16.6h47.4s8.3 0 5.6 8.3c-7.6 23.5-27 80.2-44.7 135.4-6.8 25.4-7.7 36.7-3.5 38.8 4.2 2.1 12-9 26.7-25.9 59.8-82.1 143.4-197.5 167.8-231.1 8.1-16.6-8.4-16.6-8.4-16.6z" fill="#24222D" p-id="2086"></path></svg>