<?xml version="1.0" standalone="no"?><!DOCTYPE svg PUBLIC "-//W3C//DTD SVG 1.1//EN" "http://www.w3.org/Graphics/SVG/1.1/DTD/svg11.dtd"><svg t="1666299182584" class="icon" viewBox="0 0 1024 1024" version="1.1" xmlns="http://www.w3.org/2000/svg" p-id="10968" xmlns:xlink="http://www.w3.org/1999/xlink" width="200" height="200"><path d="M270.8 361.5V851c0 22.5 108.3 40.8 241.8 40.8s241.8-18.3 241.8-40.8V361.5" fill="#406833" p-id="10969"></path><path d="M512.6 896.7c-64.9 0-125.9-4.3-171.8-12-22.6-3.8-40.3-8.3-52.8-13.2-14.9-5.9-22.1-12.7-22.1-20.5V361.5c0-2.8 2.2-5 5-5s5 2.2 5 5v489.4c0 4.4 13.9 15 66.7 23.9 45.4 7.7 105.8 11.9 170.1 11.9s124.7-4.2 170.1-11.9c52.7-8.9 66.7-19.5 66.7-23.9V361.5c0-2.8 2.2-5 5-5s5 2.2 5 5v489.4c0 7.9-7.2 14.6-22.2 20.5-12.5 5-30.3 9.4-52.8 13.2-46 7.9-107.1 12.1-171.9 12.1z" p-id="10970"></path><path d="M270.8 280a241.8 40.8 0 1 0 483.6 0 241.8 40.8 0 1 0-483.6 0Z" fill="#B0C71E" p-id="10971"></path><path d="M512.6 325.7c-64.9 0-125.9-4.3-171.8-12-22.6-3.8-40.3-8.3-52.8-13.2-14.9-5.9-22.1-12.7-22.1-20.5s7.2-14.6 22.1-20.5c12.5-5 30.3-9.4 52.8-13.2 45.9-7.7 107-12 171.8-12 64.9 0 125.9 4.3 171.8 12 22.6 3.8 40.3 8.3 52.8 13.2 14.9 5.9 22.1 12.7 22.1 20.5s-7.2 14.6-22.1 20.5c-12.5 5-30.3 9.4-52.8 13.2-45.9 7.8-107 12-171.8 12z m0-81.5c-64.3 0-124.7 4.2-170.1 11.9-52.7 8.9-66.7 19.5-66.7 23.9s13.9 15 66.7 23.9c45.4 7.7 105.8 11.9 170.1 11.9s124.7-4.2 170.1-11.9c52.7-8.9 66.7-19.5 66.7-23.9s-13.9-15-66.7-23.9c-45.4-7.7-105.8-11.9-170.1-11.9z" p-id="10972"></path><path d="M754.4 280v81.6c0 22.5-108.3 40.8-241.8 40.8s-241.8-18.3-241.8-40.8V280c0 22.5 108.3 40.8 241.8 40.8s241.8-18.3 241.8-40.8z" fill="#B0C71E" p-id="10973"></path><path d="M512.6 407.3c-64.8 0-125.9-4.3-171.8-12-22.6-3.8-40.3-8.3-52.8-13.2-14.9-5.9-22.2-12.7-22.2-20.5V280c0-2.8 2.2-5 5-5s5 2.2 5 5c0 4.4 13.9 15 66.7 23.9 45.4 7.7 105.8 11.9 170.1 11.9h0.1c64.3 0 124.7-4.2 170-11.9 52.7-8.9 66.7-19.5 66.7-23.9 0-2.8 2.2-5 5-5s5 2.2 5 5v81.6c0 7.9-7.2 14.6-22.1 20.5-12.5 5-30.3 9.4-52.8 13.2-46 7.7-107.1 12-171.9 12zM275.8 294.4v67.1c0 4.4 13.9 15 66.7 23.9 45.4 7.7 105.8 11.9 170.1 11.9s124.7-4.2 170.1-11.9c52.7-8.9 66.7-19.5 66.7-23.9v-67.1c-3.2 2.1-7.3 4.1-12.1 6.1-12.5 5-30.3 9.4-52.8 13.3-45.9 7.7-106.9 12-171.7 12h-0.1c-64.9 0-125.9-4.3-171.8-12-22.6-3.8-40.3-8.3-52.8-13.2-5-2.1-9.1-4.1-12.3-6.2z" p-id="10974"></path><path d="M470.9 600.8s-86.5 8.4-92.3-70.3c0 0 0-67-58.3-93.2 0 0 181.7-28.5 150.6 163.5z" fill="#B2CA1E" p-id="10975"></path><path d="M463.5 606c-13.7 0-42.6-2.4-64.2-20.6-15.3-12.9-24-31.3-25.7-54.6v-0.4c0-0.2-0.1-16.4-7.1-35.4-9.2-25.1-25.4-43-48.2-53.3a4.9 4.9 0 0 1-2.9-3.9c-0.2-1.7 0.4-3.4 1.7-4.5 1-0.9 1.6-1.4 12.3-2.2 5.6-0.4 14.4-0.8 24.7-0.3 18.4 0.9 45.3 4.8 69.2 18.2 21.1 11.9 36.5 29.2 45.7 51.6 11 26.6 13.3 60.5 6.8 100.8-0.4 2.2-2.2 4-4.5 4.2-0.4 0.2-3.2 0.4-7.8 0.4z m7.4-5.2z m-87.3-70.5c1.5 20.4 9 36.4 22.1 47.5 20.7 17.5 50.4 18.5 60.9 18.2 8.2-54.8-0.9-95.8-27-122-30.6-30.8-77.9-33.8-102.4-33 17.6 11.9 30.9 29.3 38.8 51.1 7.2 19.6 7.6 36.1 7.6 38.2z" p-id="10976"></path><path d="M512.6 642.9s43.7-68.7 102-42.5c0 0 35 29.1 90.3-5.8 0 0-43.7 140.4-192.3 48.3z" fill="#B2CA1E" p-id="10977"></path><path d="M604.4 679.2c-28.4 0-60.1-10.7-94.5-32-1.1-0.7-1.9-1.8-2.2-3.1s-0.1-2.7 0.7-3.8c0.5-0.7 11.6-18.1 30.3-32.4 25.4-19.4 52.3-23.5 77.9-12 0.4 0.2 0.8 0.4 1.1 0.7 1.3 1.1 33.1 26.2 84.4-6.2 2.1-1.3 4.7-0.9 6.4 0.9 2.1 2.4 1.4 4.3-0.4 8.9-0.9 2.2-2.3 5.8-4.4 10.1-3.6 7.6-9.9 19-19.2 30.1-17.4 21-38.8 33.6-63.4 37.6-5.3 0.8-10.9 1.2-16.7 1.2z m-84.6-37.8c45 26.8 84.3 34.3 116.7 22.1 32.2-12 50.2-40.8 58.2-57.6-24.1 11.9-43.8 11.9-56.7 9.5-14.6-2.7-23.7-9-26.1-10.8-45.2-19.8-81.8 22.9-92.1 36.8z" p-id="10978"></path><path d="M396.1 771.5c-1.6 0-3.2-0.8-4.1-2.2-1.6-2.3-1-5.4 1.3-6.9 0.8-0.6 67.9-47.4 74.9-123.1 4.9-53.3-20.5-108.3-75.6-163.4-2-2-2-5.1 0-7.1s5.1-2 7.1 0c57.4 57.4 83.8 115.1 78.5 171.5-3.9 42.1-25.3 75.3-42.4 95.8-18.6 22.1-36 34.1-36.8 34.6-1 0.5-2 0.8-2.9 0.8z" p-id="10979"></path><path d="M470.9 664.1c-1.8 0-3.5-1-4.4-2.6-1.3-2.4-0.4-5.5 2-6.8 3.2-1.7 79.7-42.2 131.1-12 2.4 1.4 3.2 4.5 1.8 6.8-1.4 2.4-4.5 3.2-6.8 1.8-46.5-27.3-120.6 11.8-121.3 12.2-0.8 0.4-1.6 0.6-2.4 0.6z" p-id="10980"></path></svg>