<?xml version="1.0" standalone="no"?><!DOCTYPE svg PUBLIC "-//W3C//DTD SVG 1.1//EN" "http://www.w3.org/Graphics/SVG/1.1/DTD/svg11.dtd"><svg t="1666299179652" class="icon" viewBox="0 0 1024 1024" version="1.1" xmlns="http://www.w3.org/2000/svg" p-id="10824" xmlns:xlink="http://www.w3.org/1999/xlink" width="200" height="200"><path d="M606.94 478.86c-73.09-198-246.29-281.65-298.51-309.14-3.67-1.94-0.9-7.6 2.83-5.76 7.7 3.8-11-16.33-19.29 14a1.55 1.55 0 0 0-0.05 0.23c-5.16 25 7.35 43.79 25 78.49 4.21 8.28 7.55 34.06 14.92 40.43 66.24 57.19 135.81 136.47 173 237.25 35.67 96.64 35.88 197.59 24.21 282-5.4 39.06 31.77 76.95 24 106.87-0.36 1.41 0.41 2.12 1.76 1.59L584 913.33s107.46-205.53 22.94-434.47z" fill="#2CBF9C" p-id="10825"></path><path d="M558.62 931.6a12 12 0 0 1-11.26-7.84L272.42 179a12 12 0 0 1 22.52-8.31l274.94 744.75a12 12 0 0 1-11.26 16.16z" fill="" p-id="10826"></path><path d="M386.93 474.85a11.9 11.9 0 0 1-5-1.1L270.46 422.4a12 12 0 0 1 10-21.8L392 452a12 12 0 0 1-5 22.9zM455.92 645.2a12 12 0 0 1-10.89-17l79.19-171.86a12 12 0 0 1 21.8 10l-79.19 171.88a12 12 0 0 1-10.91 6.98zM483.7 729.74a12 12 0 0 1-5-1.11l-165.94-76.45a12 12 0 1 1 10-21.79l165.93 76.45a12 12 0 0 1-5 22.9z" fill="" p-id="10827"></path><path d="M295.48 175.93a22 22 0 0 1 11.52 3.26c37 22.33 92.25 59.89 145.43 112 62 60.8 106.42 126.73 132 196s34.63 148.19 27 234.71c-6.54 74.18-24.14 138.64-37.75 179.65a22.49 22.49 0 0 1-21.36 15.4 22 22 0 0 1-11.53-3.25c-37-22.34-92.26-59.9-145.43-112-62-60.8-106.43-126.73-132-195.95s-34.64-148.18-27-234.71c6.55-74.17 24.14-138.64 37.75-179.65a22.49 22.49 0 0 1 21.36-15.4m0-24a46.44 46.44 0 0 0-44.14 31.84c-28.47 85.82-71.7 264.38-10.48 430.23S451 887.49 528.38 934.22a46.39 46.39 0 0 0 68.08-25.13c28.47-85.82 71.71-264.38 10.48-430.23S396.83 205.37 319.42 158.64a46.09 46.09 0 0 0-23.94-6.71zM738.78 842.77a12 12 0 0 1-5.15-22.84c36.27-17.23 85.75-48.15 115.46-97.67 37.13-61.87 34.37-137.06 29.41-176.37a10.6 10.6 0 0 0-14.32-8.59c-37 14.12-104.67 47.05-141.8 108.92-28.78 48-33.32 104.14-32.06 142.82a12 12 0 0 1-24 0.78c-1.37-41.9 3.67-103 35.46-156 40.85-68.06 113.91-103.77 153.82-119a34.6 34.6 0 0 1 46.69 28c5.34 42.39 8.21 123.66-32.64 191.72-32.79 54.66-86.48 88.35-125.75 107a11.92 11.92 0 0 1-5.12 1.23z" fill="" p-id="10828"></path></svg>