<?xml version="1.0" standalone="no"?><!DOCTYPE svg PUBLIC "-//W3C//DTD SVG 1.1//EN" "http://www.w3.org/Graphics/SVG/1.1/DTD/svg11.dtd"><svg t="1666299195933" class="icon" viewBox="0 0 1024 1024" version="1.1" xmlns="http://www.w3.org/2000/svg" p-id="12447" xmlns:xlink="http://www.w3.org/1999/xlink" width="200" height="200"><path d="M737.2 617.3c-3.4 0-6.8-0.2-10.2-0.5-2.2-0.2-3.4-0.2-4.3-0.3-5.6-0.2-8.5-0.8-15.6-2.7-8.1-2.2-14.8-7.3-19-14.6-4.2-7.2-5.3-15.7-3.1-23.8a31.36 31.36 0 0 1 30.3-23.2c2.7 0 5.4 0.4 8 1 1.2 0.3 1.9 0.5 2.5 0.7 1.9 0.1 3.9 0.2 7.1 0.5 1.4 0.1 2.8 0.2 4.1 0.2 12.5 0 25.4-5.6 38.6-16.5 39.7-33.1 71.1-108.8 75.5-158.8 1.6-18.1-1.8-23.3-2.9-24.5-7.5-8.3-42.9-8.6-74.1-8.9-7.2-0.1-14.8-0.1-22.5-0.3-8.4-0.1-16.2-3.5-22-9.6-5.8-6-8.9-13.9-8.8-22.3 0.3-16.4 13.9-29.9 30.9-30.7 8.5 0.1 15.8 0.2 22.9 0.2 50.5 0.5 94 0.9 119.9 29.4 15.5 17 21.6 40.6 18.9 72.1-5.5 62.7-41.6 154.6-97.8 201.5-24.6 20.7-51 31.1-78.4 31.1z" fill="#D1DDE8" p-id="12448"></path><path d="M752.4 297c7.6 0.1 15 0.2 22.1 0.3 49.1 0.4 87.9 0.8 109.8 24.8 12.7 14 17.7 34.1 15.3 61.5-5.2 59.9-39.5 147.6-92.8 192-22.2 18.5-45.5 27.8-69.6 27.8-2.9 0-5.9-0.1-8.8-0.4-2.6-0.2-4.1-0.3-5.1-0.3-4.1-0.2-6-0.5-12.5-2.2-9.3-2.5-14.8-12-12.3-21.3 2.1-7.8 9.2-12.9 16.8-12.9 1.5 0 3 0.2 4.5 0.6 2.3 0.6 3.4 0.9 4.2 1.1 2 0.1 4 0.1 7.6 0.5 1.8 0.2 3.6 0.3 5.4 0.3 15.8 0 31.8-6.6 47.5-19.7 43.8-36.5 75.9-115.8 80.4-168.3 1.5-17.2-0.6-28.6-6.4-35.1-11.6-12.8-43.7-13.1-84.3-13.4-7.2-0.1-14.6-0.1-22.4-0.3-9.6-0.2-17.3-8.1-17.1-17.7 0.2-9.8 8.4-16.8 17.7-17.3m-0.4-27.8h-0.9c-24.3 1.2-43.7 20.7-44.1 44.4-0.2 12.1 4.3 23.5 12.7 32.2 8.4 8.7 19.7 13.6 31.7 13.8 7.8 0.1 15.4 0.2 22.6 0.3 22.6 0.2 53.1 0.5 63.2 4.4 0.4 2.1 0.7 6.4 0.1 13.8-4.1 47.2-33.4 118.4-70.5 149.3-10.6 8.8-20.5 13.3-29.7 13.3-0.9 0-1.8 0-2.7-0.1-2.7-0.3-4.7-0.4-6.3-0.5l-0.9-0.2c-3.9-1-7.8-1.5-11.7-1.5-20.5 0-38.4 13.8-43.7 33.5-3.1 11.7-1.5 23.8 4.5 34.3 6 10.5 15.8 17.9 27.5 21.1 7.8 2.1 11.8 2.9 18.6 3.2 0.7 0 1.7 0.1 3.6 0.2 3.8 0.4 7.6 0.5 11.4 0.5 30.7 0 60.1-11.5 87.4-34.2 59.7-49.8 96.9-143.8 102.7-210.9 3.1-35.5-4.2-62.5-22.5-82.6-30-33-76.4-33.4-130.1-33.9-7-0.1-14.3-0.1-21.8-0.3l-1.1-0.1z" fill="#3D2C1F" p-id="12449"></path><path d="M739.4 200.2c0.2-16.7 0.3-33.7 0.3-51.2H139.9c0 645.6 134.3 687.7 299.9 687.7 117.4 0 219.1-31.4 268.3-272.3 25.9-120.2 29.4-287.1 31.3-364.2z" fill="#FFFFFF" p-id="12450"></path><path d="M646.5 145.5c0 17.5-0.1 34.6-0.3 51.2-1.8 77-5.4 244-31.3 364.2-40.3 197.5-152.7 257.6-243.3 271.6 21.9 3.3 44.7 4.1 68.2 4.1 117.4 0 219.1-31.4 268.3-272.3 25.9-120.2 29.5-287.1 31.3-364.2 0.2-16.7 0.3-33.7 0.3-51.2l-93.2-3.4z" fill="#E9EFF8" p-id="12451"></path><path d="M439.8 854.1c-179.8 0-317.3-51.9-317.3-705.1 0-9.6 7.8-17.4 17.4-17.4h599.9c9.6 0 17.4 7.8 17.4 17.4 0 17.6-0.1 34.7-0.3 51.4v0.2l-0.1 4.1c-1.9 79.1-5.8 243.6-31.6 363.3-48.6 237.4-149.3 286.1-285.4 286.1zM157.3 166.4c2.6 652.9 151.2 652.9 282.5 652.9 104.6 0 202.5-19.8 251.3-258.4 25.2-116.7 29-279 30.9-357l0.1-4c0.1-11 0.2-22.2 0.3-33.5H157.3z m582.1 33.8h0.1-0.1z" fill="#3D2C1F" p-id="12452"></path><path d="M181.1 895.8c-34.1 0-65.1-24.8-65.1-52v-7c0-9.6 7.8-17.4 17.4-17.4l591.8-0.2c4.6 0 9 1.8 12.3 5.1 3.3 3.3 5.1 7.7 5.1 12.3v7c0 27.8-30.4 52.2-65.1 52.2H181.1z" fill="#77BB6D" p-id="12453"></path><path d="M725.2 836.7v7c0 17.9-23.2 34.8-47.7 34.8H181.1c-24.1 0-47.7-17.1-47.7-34.6v-7l591.8-0.2m0-34.8l-591.8 0.2c-19.2 0-34.8 15.6-34.8 34.8v7c0 37 38.6 69.4 82.5 69.4h496.4c44.7 0 82.5-31.9 82.5-69.6v-7c0-9.2-3.7-18.1-10.2-24.6-6.5-6.5-15.3-10.2-24.6-10.2z" fill="#3D2C1F" p-id="12454"></path><path d="M547.5 340.9s-245 37.7-216.7 290.2c0-0.1 252.8-15.3 216.7-290.2z" fill="#77BB6D" p-id="12455"></path><path d="M330.8 645c-7 0-13-5.3-13.8-12.4-29.4-262.7 225.8-305.1 228.4-305.5 3.7-0.6 7.5 0.4 10.5 2.6s5 5.6 5.4 9.3c11.7 89.4-4.9 162-49.3 215.8-68 82.4-175.8 89.8-180.4 90.1-0.2 0-0.5 0.1-0.8 0.1z m204.6-287.4c-49.3 11.9-206.1 65.2-192.1 257.9 29.3-4.7 100.4-21.5 147.4-78.5 36.8-44.7 51.8-105 44.7-179.4z" fill="#3D2C1F" p-id="12456"></path><path d="M508.5 400.8s-56.2 125.8-137.4 184.7" fill="#77BB6D" p-id="12457"></path><path d="M371.1 599.4c-4.3 0-8.6-2-11.3-5.7-4.5-6.2-3.1-14.9 3.1-19.4 77.2-55.9 132.4-177.9 132.9-179.1 3.1-7 11.3-10.1 18.4-7 7 3.1 10.2 11.4 7 18.4-2.4 5.3-58.7 129.9-142 190.3-2.4 1.6-5.3 2.5-8.1 2.5z" fill="#3D2C1F" p-id="12458"></path><path d="M141 244.9h597.3c0.5-16.9 0.8-32.1 1.1-44.7 0.2-16.7 0.3-33.7 0.3-51.2H139.9c0 33.6 0.4 65.5 1.1 95.9z" fill="#77BB6D" p-id="12459"></path><path d="M738.2 262.3H141c-9.4 0-17.2-7.5-17.4-17-0.7-31.6-1.1-64-1.1-96.3 0-9.6 7.8-17.4 17.4-17.4h599.9c9.6 0 17.4 7.8 17.4 17.4 0 17.6-0.1 34.7-0.3 51.4-0.3 12.8-0.7 28.1-1.2 45-0.3 9.4-8 16.9-17.5 16.9zM158 227.5h563.3c0.3-10.2 0.5-19.5 0.7-27.7 0.1-10.9 0.2-22 0.3-33.4h-565c0.1 20.5 0.3 40.9 0.7 61.1z" fill="#3D2C1F" p-id="12460"></path></svg>